<?xml version="1.0"?>
<svg xmlns="http://www.w3.org/2000/svg" 
viewBox="0 0 64 64" width="512" height="512" style="fill: #FFFFFF;"><g id="Cargo_ship-2" data-name="Cargo ship"><rect x="27" y="4" width="10" height="7"/>
<polygon points="39 24.96 49 27.817 49 22 39 22 39 24.96"/>
<path d="M27,24.388l4.725-1.35a1.008,1.008,0,0,1,.55,0L37,24.388V22H27Z"/>
<rect x="33" y="13" width="10" height="7"/>
<path d="M33,25.326V35a1,1,0,0,1-2,0V25.326l-18.585,5.31L18.223,42.73A3.518,3.518,0,0,1,20.415,42c1.96,0,2.93,1.338,3.709,2.413C24.858,45.427,25.317,46,26.212,46s1.356-.573,2.091-1.587c.78-1.075,1.75-2.413,3.71-2.413s2.93,1.338,3.709,2.413C36.457,45.427,36.916,46,37.812,46s1.355-.573,2.09-1.587C40.681,43.338,41.651,42,43.611,42a3.513,3.513,0,0,1,2.173.717l5.8-12.081ZM29.447,28.9l-2,1a1,1,0,0,1-.894-1.79l2-1a1,1,0,1,1,.894,1.79Z"/><path d="M57.293,52.586C56.56,51.573,56.1,51,55.207,51s-1.355.573-2.089,1.587C52.339,53.662,51.37,55,49.41,55s-2.93-1.338-3.709-2.413C44.966,51.573,44.507,51,43.611,51s-1.355.573-2.09,1.587C40.742,53.662,39.772,55,37.812,55s-2.93-1.338-3.709-2.413C33.368,51.573,32.909,51,32.013,51s-1.356.573-2.091,1.587C29.143,53.662,28.173,55,26.212,55s-2.929-1.338-3.708-2.413C21.77,51.573,21.311,51,20.415,51s-1.356.573-2.091,1.587C17.544,53.662,16.574,55,14.613,55S11.68,53.662,10.9,52.587C10.165,51.573,9.705,51,8.807,51s-1.359.573-2.1,1.588C5.933,53.662,4.961,55,3,55v5c.9,0,1.358-.573,2.094-1.588C5.874,57.338,6.845,56,8.807,56s2.932,1.338,3.712,2.412c.735,1.015,1.2,1.588,2.094,1.588s1.356-.573,2.092-1.587c.779-1.075,1.75-2.413,3.71-2.413s2.93,1.338,3.709,2.413C24.858,59.427,25.317,60,26.212,60s1.356-.573,2.091-1.587c.78-1.075,1.75-2.413,3.71-2.413s2.93,1.338,3.709,2.413C36.457,59.427,36.916,60,37.812,60s1.355-.573,2.09-1.587C40.681,57.338,41.651,56,43.611,56s2.93,1.338,3.709,2.413C48.055,59.427,48.514,60,49.41,60s1.354-.573,2.088-1.587C52.277,57.338,53.247,56,55.207,56s2.927,1.338,3.706,2.413C59.647,59.427,60.105,60,61,60V55C59.041,55,58.072,53.662,57.293,52.586Z"/><path d="M5.094,51.412C5.874,50.338,6.845,49,8.807,49s2.932,1.338,3.712,2.412c.735,1.015,1.2,1.588,2.094,1.588s1.356-.573,2.092-1.587c.779-1.075,1.75-2.413,3.71-2.413s2.93,1.338,3.709,2.413C24.858,52.427,25.317,53,26.212,53s1.356-.573,2.091-1.587c.78-1.075,1.75-2.413,3.71-2.413s2.93,1.338,3.709,2.413C36.457,52.427,36.916,53,37.812,53s1.355-.573,2.09-1.587C40.681,50.338,41.651,49,43.611,49s2.93,1.338,3.709,2.413C48.055,52.427,48.514,53,49.41,53s1.354-.573,2.088-1.587C52.277,50.338,53.247,49,55.207,49s2.927,1.338,3.706,2.413C59.647,52.427,60.105,53,61,53V48c-1.959,0-2.928-1.338-3.707-2.414C56.56,44.573,56.1,44,55.207,44s-1.355.573-2.089,1.587C52.339,46.662,51.37,48,49.41,48s-2.93-1.338-3.709-2.413C44.966,44.573,44.507,44,43.611,44s-1.355.573-2.09,1.587C40.742,46.662,39.772,48,37.812,48s-2.93-1.338-3.709-2.413C33.368,44.573,32.909,44,32.013,44s-1.356.573-2.091,1.587C29.143,46.662,28.173,48,26.212,48s-2.929-1.338-3.708-2.413C21.77,44.573,21.311,44,20.415,44s-1.356.573-2.091,1.587C17.544,46.662,16.574,48,14.613,48S11.68,46.662,10.9,45.587C10.165,44.573,9.705,44,8.807,44s-1.359.573-2.1,1.588C5.933,46.662,4.961,48,3,48v5C3.9,53,4.358,52.427,5.094,51.412Z"/><polygon points="15 27.817 25 24.96 25 22 15 22 15 27.817"/><rect x="21" y="13" width="10" height="7"/></g></svg>
